<mxfile host="app.diagrams.net" modified="2024-01-07T10:13:31.489Z" agent="Mozilla/5.0 (Windows NT 10.0; Win64; x64) AppleWebKit/537.36 (KHTML, like Gecko) Chrome/119.0.0.0 Safari/537.36 OPR/105.0.0.0" etag="LxVxn9Joyt6z2y14Eot4" version="22.1.17" type="device">
  <diagram name="Seite-1" id="zmKzF6OxXrMTUGsFJJyH">
    <mxGraphModel dx="1480" dy="898" grid="1" gridSize="10" guides="1" tooltips="1" connect="1" arrows="1" fold="1" page="1" pageScale="1" pageWidth="827" pageHeight="1169" math="0" shadow="0">
      <root>
        <mxCell id="0" />
        <mxCell id="1" parent="0" />
        <mxCell id="i4n7vAegHaeL9RhwAYNJ-2" value="" style="shape=cube;whiteSpace=wrap;html=1;boundedLbl=1;backgroundOutline=1;darkOpacity=0.05;darkOpacity2=0.1;size=10;rotation=90;fillColor=#dae8fc;strokeColor=#6c8ebf;" vertex="1" parent="1">
          <mxGeometry x="220" y="230" width="50" height="50" as="geometry" />
        </mxCell>
        <mxCell id="i4n7vAegHaeL9RhwAYNJ-3" value="" style="shape=cube;whiteSpace=wrap;html=1;boundedLbl=1;backgroundOutline=1;darkOpacity=0.05;darkOpacity2=0.1;size=10;rotation=90;fillColor=#dae8fc;strokeColor=#6c8ebf;" vertex="1" parent="1">
          <mxGeometry x="260" y="230" width="50" height="50" as="geometry" />
        </mxCell>
        <mxCell id="i4n7vAegHaeL9RhwAYNJ-4" value="" style="shape=cube;whiteSpace=wrap;html=1;boundedLbl=1;backgroundOutline=1;darkOpacity=0.05;darkOpacity2=0.1;size=10;rotation=90;fillColor=#dae8fc;strokeColor=#6c8ebf;" vertex="1" parent="1">
          <mxGeometry x="300" y="230" width="50" height="50" as="geometry" />
        </mxCell>
        <mxCell id="i4n7vAegHaeL9RhwAYNJ-5" value="" style="shape=cube;whiteSpace=wrap;html=1;boundedLbl=1;backgroundOutline=1;darkOpacity=0.05;darkOpacity2=0.1;size=10;rotation=90;fillColor=#dae8fc;strokeColor=#6c8ebf;" vertex="1" parent="1">
          <mxGeometry x="340" y="230" width="50" height="50" as="geometry" />
        </mxCell>
        <mxCell id="i4n7vAegHaeL9RhwAYNJ-6" value="" style="shape=cube;whiteSpace=wrap;html=1;boundedLbl=1;backgroundOutline=1;darkOpacity=0.05;darkOpacity2=0.1;size=10;rotation=90;fillColor=#dae8fc;strokeColor=#6c8ebf;" vertex="1" parent="1">
          <mxGeometry x="380" y="230" width="50" height="50" as="geometry" />
        </mxCell>
        <mxCell id="i4n7vAegHaeL9RhwAYNJ-7" value="" style="shape=cube;whiteSpace=wrap;html=1;boundedLbl=1;backgroundOutline=1;darkOpacity=0.05;darkOpacity2=0.1;size=10;rotation=90;fillColor=#dae8fc;strokeColor=#6c8ebf;" vertex="1" parent="1">
          <mxGeometry x="220" y="190" width="50" height="50" as="geometry" />
        </mxCell>
        <mxCell id="i4n7vAegHaeL9RhwAYNJ-8" value="" style="shape=cube;whiteSpace=wrap;html=1;boundedLbl=1;backgroundOutline=1;darkOpacity=0.05;darkOpacity2=0.1;size=10;rotation=90;fillColor=#dae8fc;strokeColor=#6c8ebf;" vertex="1" parent="1">
          <mxGeometry x="260" y="190" width="50" height="50" as="geometry" />
        </mxCell>
        <mxCell id="i4n7vAegHaeL9RhwAYNJ-9" value="" style="shape=cube;whiteSpace=wrap;html=1;boundedLbl=1;backgroundOutline=1;darkOpacity=0.05;darkOpacity2=0.1;size=10;rotation=90;fillColor=#dae8fc;strokeColor=#6c8ebf;" vertex="1" parent="1">
          <mxGeometry x="300" y="190" width="50" height="50" as="geometry" />
        </mxCell>
        <mxCell id="i4n7vAegHaeL9RhwAYNJ-10" value="" style="shape=cube;whiteSpace=wrap;html=1;boundedLbl=1;backgroundOutline=1;darkOpacity=0.05;darkOpacity2=0.1;size=10;rotation=90;fillColor=#dae8fc;strokeColor=#6c8ebf;" vertex="1" parent="1">
          <mxGeometry x="340" y="190" width="50" height="50" as="geometry" />
        </mxCell>
        <mxCell id="i4n7vAegHaeL9RhwAYNJ-11" value="" style="shape=cube;whiteSpace=wrap;html=1;boundedLbl=1;backgroundOutline=1;darkOpacity=0.05;darkOpacity2=0.1;size=10;rotation=90;fillColor=#dae8fc;strokeColor=#6c8ebf;" vertex="1" parent="1">
          <mxGeometry x="380" y="190" width="50" height="50" as="geometry" />
        </mxCell>
        <mxCell id="i4n7vAegHaeL9RhwAYNJ-12" value="" style="shape=cube;whiteSpace=wrap;html=1;boundedLbl=1;backgroundOutline=1;darkOpacity=0.05;darkOpacity2=0.1;size=10;rotation=90;fillColor=#dae8fc;strokeColor=#6c8ebf;" vertex="1" parent="1">
          <mxGeometry x="220" y="150" width="50" height="50" as="geometry" />
        </mxCell>
        <mxCell id="i4n7vAegHaeL9RhwAYNJ-13" value="" style="shape=cube;whiteSpace=wrap;html=1;boundedLbl=1;backgroundOutline=1;darkOpacity=0.05;darkOpacity2=0.1;size=10;rotation=90;fillColor=#dae8fc;strokeColor=#6c8ebf;" vertex="1" parent="1">
          <mxGeometry x="260" y="150" width="50" height="50" as="geometry" />
        </mxCell>
        <mxCell id="i4n7vAegHaeL9RhwAYNJ-14" value="" style="shape=cube;whiteSpace=wrap;html=1;boundedLbl=1;backgroundOutline=1;darkOpacity=0.05;darkOpacity2=0.1;size=10;rotation=90;fillColor=#dae8fc;strokeColor=#6c8ebf;" vertex="1" parent="1">
          <mxGeometry x="300" y="150" width="50" height="50" as="geometry" />
        </mxCell>
        <mxCell id="i4n7vAegHaeL9RhwAYNJ-15" value="" style="shape=cube;whiteSpace=wrap;html=1;boundedLbl=1;backgroundOutline=1;darkOpacity=0.05;darkOpacity2=0.1;size=10;rotation=90;fillColor=#dae8fc;strokeColor=#6c8ebf;" vertex="1" parent="1">
          <mxGeometry x="340" y="150" width="50" height="50" as="geometry" />
        </mxCell>
        <mxCell id="i4n7vAegHaeL9RhwAYNJ-16" value="" style="shape=cube;whiteSpace=wrap;html=1;boundedLbl=1;backgroundOutline=1;darkOpacity=0.05;darkOpacity2=0.1;size=10;rotation=90;fillColor=#dae8fc;strokeColor=#6c8ebf;" vertex="1" parent="1">
          <mxGeometry x="380" y="150" width="50" height="50" as="geometry" />
        </mxCell>
        <mxCell id="i4n7vAegHaeL9RhwAYNJ-17" value="" style="shape=cube;whiteSpace=wrap;html=1;boundedLbl=1;backgroundOutline=1;darkOpacity=0.05;darkOpacity2=0.1;size=10;rotation=90;fillColor=#dae8fc;strokeColor=#6c8ebf;" vertex="1" parent="1">
          <mxGeometry x="220" y="110" width="50" height="50" as="geometry" />
        </mxCell>
        <mxCell id="i4n7vAegHaeL9RhwAYNJ-18" value="" style="shape=cube;whiteSpace=wrap;html=1;boundedLbl=1;backgroundOutline=1;darkOpacity=0.05;darkOpacity2=0.1;size=10;rotation=90;fillColor=#dae8fc;strokeColor=#6c8ebf;" vertex="1" parent="1">
          <mxGeometry x="260" y="110" width="50" height="50" as="geometry" />
        </mxCell>
        <mxCell id="i4n7vAegHaeL9RhwAYNJ-19" value="" style="shape=cube;whiteSpace=wrap;html=1;boundedLbl=1;backgroundOutline=1;darkOpacity=0.05;darkOpacity2=0.1;size=10;rotation=90;fillColor=#dae8fc;strokeColor=#6c8ebf;" vertex="1" parent="1">
          <mxGeometry x="300" y="110" width="50" height="50" as="geometry" />
        </mxCell>
        <mxCell id="i4n7vAegHaeL9RhwAYNJ-20" value="" style="shape=cube;whiteSpace=wrap;html=1;boundedLbl=1;backgroundOutline=1;darkOpacity=0.05;darkOpacity2=0.1;size=10;rotation=90;fillColor=#dae8fc;strokeColor=#6c8ebf;" vertex="1" parent="1">
          <mxGeometry x="340" y="110" width="50" height="50" as="geometry" />
        </mxCell>
        <mxCell id="i4n7vAegHaeL9RhwAYNJ-21" value="" style="shape=cube;whiteSpace=wrap;html=1;boundedLbl=1;backgroundOutline=1;darkOpacity=0.05;darkOpacity2=0.1;size=10;rotation=90;fillColor=#dae8fc;strokeColor=#6c8ebf;" vertex="1" parent="1">
          <mxGeometry x="380" y="110" width="50" height="50" as="geometry" />
        </mxCell>
        <mxCell id="i4n7vAegHaeL9RhwAYNJ-22" value="" style="shape=cube;whiteSpace=wrap;html=1;boundedLbl=1;backgroundOutline=1;darkOpacity=0.05;darkOpacity2=0.1;size=10;rotation=90;fillColor=#dae8fc;strokeColor=#6c8ebf;" vertex="1" parent="1">
          <mxGeometry x="220" y="70" width="50" height="50" as="geometry" />
        </mxCell>
        <mxCell id="i4n7vAegHaeL9RhwAYNJ-23" value="" style="shape=cube;whiteSpace=wrap;html=1;boundedLbl=1;backgroundOutline=1;darkOpacity=0.05;darkOpacity2=0.1;size=10;rotation=90;fillColor=#dae8fc;strokeColor=#6c8ebf;" vertex="1" parent="1">
          <mxGeometry x="260" y="70" width="50" height="50" as="geometry" />
        </mxCell>
        <mxCell id="i4n7vAegHaeL9RhwAYNJ-24" value="" style="shape=cube;whiteSpace=wrap;html=1;boundedLbl=1;backgroundOutline=1;darkOpacity=0.05;darkOpacity2=0.1;size=10;rotation=90;fillColor=#dae8fc;strokeColor=#6c8ebf;" vertex="1" parent="1">
          <mxGeometry x="300" y="70" width="50" height="50" as="geometry" />
        </mxCell>
        <mxCell id="i4n7vAegHaeL9RhwAYNJ-25" value="" style="shape=cube;whiteSpace=wrap;html=1;boundedLbl=1;backgroundOutline=1;darkOpacity=0.05;darkOpacity2=0.1;size=10;rotation=90;fillColor=#dae8fc;strokeColor=#6c8ebf;" vertex="1" parent="1">
          <mxGeometry x="340" y="70" width="50" height="50" as="geometry" />
        </mxCell>
        <mxCell id="i4n7vAegHaeL9RhwAYNJ-26" value="" style="shape=cube;whiteSpace=wrap;html=1;boundedLbl=1;backgroundOutline=1;darkOpacity=0.05;darkOpacity2=0.1;size=10;rotation=90;fillColor=#dae8fc;strokeColor=#6c8ebf;" vertex="1" parent="1">
          <mxGeometry x="380" y="70" width="50" height="50" as="geometry" />
        </mxCell>
        <mxCell id="i4n7vAegHaeL9RhwAYNJ-27" value="" style="shape=cube;whiteSpace=wrap;html=1;boundedLbl=1;backgroundOutline=1;darkOpacity=0.05;darkOpacity2=0.1;size=10;rotation=90;fillColor=#dae8fc;strokeColor=#6c8ebf;" vertex="1" parent="1">
          <mxGeometry x="210" y="240" width="50" height="50" as="geometry" />
        </mxCell>
        <mxCell id="i4n7vAegHaeL9RhwAYNJ-28" value="" style="shape=cube;whiteSpace=wrap;html=1;boundedLbl=1;backgroundOutline=1;darkOpacity=0.05;darkOpacity2=0.1;size=10;rotation=90;fillColor=#dae8fc;strokeColor=#6c8ebf;" vertex="1" parent="1">
          <mxGeometry x="250" y="240" width="50" height="50" as="geometry" />
        </mxCell>
        <mxCell id="i4n7vAegHaeL9RhwAYNJ-29" value="" style="shape=cube;whiteSpace=wrap;html=1;boundedLbl=1;backgroundOutline=1;darkOpacity=0.05;darkOpacity2=0.1;size=10;rotation=90;fillColor=#dae8fc;strokeColor=#6c8ebf;" vertex="1" parent="1">
          <mxGeometry x="290" y="240" width="50" height="50" as="geometry" />
        </mxCell>
        <mxCell id="i4n7vAegHaeL9RhwAYNJ-30" value="" style="shape=cube;whiteSpace=wrap;html=1;boundedLbl=1;backgroundOutline=1;darkOpacity=0.05;darkOpacity2=0.1;size=10;rotation=90;fillColor=#dae8fc;strokeColor=#6c8ebf;" vertex="1" parent="1">
          <mxGeometry x="330" y="240" width="50" height="50" as="geometry" />
        </mxCell>
        <mxCell id="i4n7vAegHaeL9RhwAYNJ-31" value="" style="shape=cube;whiteSpace=wrap;html=1;boundedLbl=1;backgroundOutline=1;darkOpacity=0.05;darkOpacity2=0.1;size=10;rotation=90;fillColor=#dae8fc;strokeColor=#6c8ebf;" vertex="1" parent="1">
          <mxGeometry x="370" y="240" width="50" height="50" as="geometry" />
        </mxCell>
        <mxCell id="i4n7vAegHaeL9RhwAYNJ-32" value="" style="shape=cube;whiteSpace=wrap;html=1;boundedLbl=1;backgroundOutline=1;darkOpacity=0.05;darkOpacity2=0.1;size=10;rotation=90;fillColor=#dae8fc;strokeColor=#6c8ebf;" vertex="1" parent="1">
          <mxGeometry x="210" y="200" width="50" height="50" as="geometry" />
        </mxCell>
        <mxCell id="i4n7vAegHaeL9RhwAYNJ-33" value="" style="shape=cube;whiteSpace=wrap;html=1;boundedLbl=1;backgroundOutline=1;darkOpacity=0.05;darkOpacity2=0.1;size=10;rotation=90;fillColor=#dae8fc;strokeColor=#6c8ebf;" vertex="1" parent="1">
          <mxGeometry x="250" y="200" width="50" height="50" as="geometry" />
        </mxCell>
        <mxCell id="i4n7vAegHaeL9RhwAYNJ-34" value="" style="shape=cube;whiteSpace=wrap;html=1;boundedLbl=1;backgroundOutline=1;darkOpacity=0.05;darkOpacity2=0.1;size=10;rotation=90;fillColor=#dae8fc;strokeColor=#6c8ebf;" vertex="1" parent="1">
          <mxGeometry x="290" y="200" width="50" height="50" as="geometry" />
        </mxCell>
        <mxCell id="i4n7vAegHaeL9RhwAYNJ-35" value="" style="shape=cube;whiteSpace=wrap;html=1;boundedLbl=1;backgroundOutline=1;darkOpacity=0.05;darkOpacity2=0.1;size=10;rotation=90;fillColor=#dae8fc;strokeColor=#6c8ebf;" vertex="1" parent="1">
          <mxGeometry x="330" y="200" width="50" height="50" as="geometry" />
        </mxCell>
        <mxCell id="i4n7vAegHaeL9RhwAYNJ-36" value="" style="shape=cube;whiteSpace=wrap;html=1;boundedLbl=1;backgroundOutline=1;darkOpacity=0.05;darkOpacity2=0.1;size=10;rotation=90;fillColor=#dae8fc;strokeColor=#6c8ebf;" vertex="1" parent="1">
          <mxGeometry x="370" y="200" width="50" height="50" as="geometry" />
        </mxCell>
        <mxCell id="i4n7vAegHaeL9RhwAYNJ-37" value="" style="shape=cube;whiteSpace=wrap;html=1;boundedLbl=1;backgroundOutline=1;darkOpacity=0.05;darkOpacity2=0.1;size=10;rotation=90;fillColor=#dae8fc;strokeColor=#6c8ebf;" vertex="1" parent="1">
          <mxGeometry x="210" y="160" width="50" height="50" as="geometry" />
        </mxCell>
        <mxCell id="i4n7vAegHaeL9RhwAYNJ-38" value="" style="shape=cube;whiteSpace=wrap;html=1;boundedLbl=1;backgroundOutline=1;darkOpacity=0.05;darkOpacity2=0.1;size=10;rotation=90;fillColor=#dae8fc;strokeColor=#6c8ebf;" vertex="1" parent="1">
          <mxGeometry x="250" y="160" width="50" height="50" as="geometry" />
        </mxCell>
        <mxCell id="i4n7vAegHaeL9RhwAYNJ-39" value="" style="shape=cube;whiteSpace=wrap;html=1;boundedLbl=1;backgroundOutline=1;darkOpacity=0.05;darkOpacity2=0.1;size=10;rotation=90;fillColor=#dae8fc;strokeColor=#6c8ebf;" vertex="1" parent="1">
          <mxGeometry x="290" y="160" width="50" height="50" as="geometry" />
        </mxCell>
        <mxCell id="i4n7vAegHaeL9RhwAYNJ-40" value="" style="shape=cube;whiteSpace=wrap;html=1;boundedLbl=1;backgroundOutline=1;darkOpacity=0.05;darkOpacity2=0.1;size=10;rotation=90;fillColor=#dae8fc;strokeColor=#6c8ebf;" vertex="1" parent="1">
          <mxGeometry x="330" y="160" width="50" height="50" as="geometry" />
        </mxCell>
        <mxCell id="i4n7vAegHaeL9RhwAYNJ-41" value="" style="shape=cube;whiteSpace=wrap;html=1;boundedLbl=1;backgroundOutline=1;darkOpacity=0.05;darkOpacity2=0.1;size=10;rotation=90;fillColor=#dae8fc;strokeColor=#6c8ebf;" vertex="1" parent="1">
          <mxGeometry x="370" y="160" width="50" height="50" as="geometry" />
        </mxCell>
        <mxCell id="i4n7vAegHaeL9RhwAYNJ-42" value="" style="shape=cube;whiteSpace=wrap;html=1;boundedLbl=1;backgroundOutline=1;darkOpacity=0.05;darkOpacity2=0.1;size=10;rotation=90;fillColor=#dae8fc;strokeColor=#6c8ebf;" vertex="1" parent="1">
          <mxGeometry x="210" y="120" width="50" height="50" as="geometry" />
        </mxCell>
        <mxCell id="i4n7vAegHaeL9RhwAYNJ-43" value="" style="shape=cube;whiteSpace=wrap;html=1;boundedLbl=1;backgroundOutline=1;darkOpacity=0.05;darkOpacity2=0.1;size=10;rotation=90;fillColor=#dae8fc;strokeColor=#6c8ebf;" vertex="1" parent="1">
          <mxGeometry x="250" y="120" width="50" height="50" as="geometry" />
        </mxCell>
        <mxCell id="i4n7vAegHaeL9RhwAYNJ-44" value="" style="shape=cube;whiteSpace=wrap;html=1;boundedLbl=1;backgroundOutline=1;darkOpacity=0.05;darkOpacity2=0.1;size=10;rotation=90;fillColor=#dae8fc;strokeColor=#6c8ebf;" vertex="1" parent="1">
          <mxGeometry x="290" y="120" width="50" height="50" as="geometry" />
        </mxCell>
        <mxCell id="i4n7vAegHaeL9RhwAYNJ-45" value="" style="shape=cube;whiteSpace=wrap;html=1;boundedLbl=1;backgroundOutline=1;darkOpacity=0.05;darkOpacity2=0.1;size=10;rotation=90;fillColor=#dae8fc;strokeColor=#6c8ebf;" vertex="1" parent="1">
          <mxGeometry x="330" y="120" width="50" height="50" as="geometry" />
        </mxCell>
        <mxCell id="i4n7vAegHaeL9RhwAYNJ-46" value="" style="shape=cube;whiteSpace=wrap;html=1;boundedLbl=1;backgroundOutline=1;darkOpacity=0.05;darkOpacity2=0.1;size=10;rotation=90;fillColor=#dae8fc;strokeColor=#6c8ebf;" vertex="1" parent="1">
          <mxGeometry x="370" y="120" width="50" height="50" as="geometry" />
        </mxCell>
        <mxCell id="i4n7vAegHaeL9RhwAYNJ-47" value="" style="shape=cube;whiteSpace=wrap;html=1;boundedLbl=1;backgroundOutline=1;darkOpacity=0.05;darkOpacity2=0.1;size=10;rotation=90;fillColor=#dae8fc;strokeColor=#6c8ebf;" vertex="1" parent="1">
          <mxGeometry x="210" y="80" width="50" height="50" as="geometry" />
        </mxCell>
        <mxCell id="i4n7vAegHaeL9RhwAYNJ-48" value="" style="shape=cube;whiteSpace=wrap;html=1;boundedLbl=1;backgroundOutline=1;darkOpacity=0.05;darkOpacity2=0.1;size=10;rotation=90;fillColor=#dae8fc;strokeColor=#6c8ebf;" vertex="1" parent="1">
          <mxGeometry x="250" y="80" width="50" height="50" as="geometry" />
        </mxCell>
        <mxCell id="i4n7vAegHaeL9RhwAYNJ-49" value="" style="shape=cube;whiteSpace=wrap;html=1;boundedLbl=1;backgroundOutline=1;darkOpacity=0.05;darkOpacity2=0.1;size=10;rotation=90;fillColor=#dae8fc;strokeColor=#6c8ebf;" vertex="1" parent="1">
          <mxGeometry x="290" y="80" width="50" height="50" as="geometry" />
        </mxCell>
        <mxCell id="i4n7vAegHaeL9RhwAYNJ-50" value="" style="shape=cube;whiteSpace=wrap;html=1;boundedLbl=1;backgroundOutline=1;darkOpacity=0.05;darkOpacity2=0.1;size=10;rotation=90;fillColor=#dae8fc;strokeColor=#6c8ebf;" vertex="1" parent="1">
          <mxGeometry x="330" y="80" width="50" height="50" as="geometry" />
        </mxCell>
        <mxCell id="i4n7vAegHaeL9RhwAYNJ-51" value="" style="shape=cube;whiteSpace=wrap;html=1;boundedLbl=1;backgroundOutline=1;darkOpacity=0.05;darkOpacity2=0.1;size=10;rotation=90;fillColor=#dae8fc;strokeColor=#6c8ebf;" vertex="1" parent="1">
          <mxGeometry x="370" y="80" width="50" height="50" as="geometry" />
        </mxCell>
        <mxCell id="i4n7vAegHaeL9RhwAYNJ-52" value="" style="shape=cube;whiteSpace=wrap;html=1;boundedLbl=1;backgroundOutline=1;darkOpacity=0.05;darkOpacity2=0.1;size=10;rotation=90;fillColor=#dae8fc;strokeColor=#6c8ebf;" vertex="1" parent="1">
          <mxGeometry x="200" y="250" width="50" height="50" as="geometry" />
        </mxCell>
        <mxCell id="i4n7vAegHaeL9RhwAYNJ-53" value="" style="shape=cube;whiteSpace=wrap;html=1;boundedLbl=1;backgroundOutline=1;darkOpacity=0.05;darkOpacity2=0.1;size=10;rotation=90;fillColor=#dae8fc;strokeColor=#6c8ebf;" vertex="1" parent="1">
          <mxGeometry x="240" y="250" width="50" height="50" as="geometry" />
        </mxCell>
        <mxCell id="i4n7vAegHaeL9RhwAYNJ-54" value="" style="shape=cube;whiteSpace=wrap;html=1;boundedLbl=1;backgroundOutline=1;darkOpacity=0.05;darkOpacity2=0.1;size=10;rotation=90;fillColor=#dae8fc;strokeColor=#6c8ebf;" vertex="1" parent="1">
          <mxGeometry x="280" y="250" width="50" height="50" as="geometry" />
        </mxCell>
        <mxCell id="i4n7vAegHaeL9RhwAYNJ-55" value="" style="shape=cube;whiteSpace=wrap;html=1;boundedLbl=1;backgroundOutline=1;darkOpacity=0.05;darkOpacity2=0.1;size=10;rotation=90;fillColor=#dae8fc;strokeColor=#6c8ebf;" vertex="1" parent="1">
          <mxGeometry x="320" y="250" width="50" height="50" as="geometry" />
        </mxCell>
        <mxCell id="i4n7vAegHaeL9RhwAYNJ-56" value="" style="shape=cube;whiteSpace=wrap;html=1;boundedLbl=1;backgroundOutline=1;darkOpacity=0.05;darkOpacity2=0.1;size=10;rotation=90;fillColor=#dae8fc;strokeColor=#6c8ebf;" vertex="1" parent="1">
          <mxGeometry x="360" y="250" width="50" height="50" as="geometry" />
        </mxCell>
        <mxCell id="i4n7vAegHaeL9RhwAYNJ-57" value="" style="shape=cube;whiteSpace=wrap;html=1;boundedLbl=1;backgroundOutline=1;darkOpacity=0.05;darkOpacity2=0.1;size=10;rotation=90;fillColor=#dae8fc;strokeColor=#6c8ebf;" vertex="1" parent="1">
          <mxGeometry x="200" y="210" width="50" height="50" as="geometry" />
        </mxCell>
        <mxCell id="i4n7vAegHaeL9RhwAYNJ-58" value="" style="shape=cube;whiteSpace=wrap;html=1;boundedLbl=1;backgroundOutline=1;darkOpacity=0.05;darkOpacity2=0.1;size=10;rotation=90;fillColor=#dae8fc;strokeColor=#6c8ebf;" vertex="1" parent="1">
          <mxGeometry x="240" y="210" width="50" height="50" as="geometry" />
        </mxCell>
        <mxCell id="i4n7vAegHaeL9RhwAYNJ-59" value="" style="shape=cube;whiteSpace=wrap;html=1;boundedLbl=1;backgroundOutline=1;darkOpacity=0.05;darkOpacity2=0.1;size=10;rotation=90;fillColor=#dae8fc;strokeColor=#6c8ebf;" vertex="1" parent="1">
          <mxGeometry x="280" y="210" width="50" height="50" as="geometry" />
        </mxCell>
        <mxCell id="i4n7vAegHaeL9RhwAYNJ-60" value="" style="shape=cube;whiteSpace=wrap;html=1;boundedLbl=1;backgroundOutline=1;darkOpacity=0.05;darkOpacity2=0.1;size=10;rotation=90;fillColor=#dae8fc;strokeColor=#6c8ebf;" vertex="1" parent="1">
          <mxGeometry x="320" y="210" width="50" height="50" as="geometry" />
        </mxCell>
        <mxCell id="i4n7vAegHaeL9RhwAYNJ-61" value="" style="shape=cube;whiteSpace=wrap;html=1;boundedLbl=1;backgroundOutline=1;darkOpacity=0.05;darkOpacity2=0.1;size=10;rotation=90;fillColor=#dae8fc;strokeColor=#6c8ebf;" vertex="1" parent="1">
          <mxGeometry x="360" y="210" width="50" height="50" as="geometry" />
        </mxCell>
        <mxCell id="i4n7vAegHaeL9RhwAYNJ-62" value="" style="shape=cube;whiteSpace=wrap;html=1;boundedLbl=1;backgroundOutline=1;darkOpacity=0.05;darkOpacity2=0.1;size=10;rotation=90;fillColor=#dae8fc;strokeColor=#6c8ebf;" vertex="1" parent="1">
          <mxGeometry x="200" y="170" width="50" height="50" as="geometry" />
        </mxCell>
        <mxCell id="i4n7vAegHaeL9RhwAYNJ-63" value="" style="shape=cube;whiteSpace=wrap;html=1;boundedLbl=1;backgroundOutline=1;darkOpacity=0.05;darkOpacity2=0.1;size=10;rotation=90;fillColor=#dae8fc;strokeColor=#6c8ebf;" vertex="1" parent="1">
          <mxGeometry x="240" y="170" width="50" height="50" as="geometry" />
        </mxCell>
        <mxCell id="i4n7vAegHaeL9RhwAYNJ-64" value="" style="shape=cube;whiteSpace=wrap;html=1;boundedLbl=1;backgroundOutline=1;darkOpacity=0.05;darkOpacity2=0.1;size=10;rotation=90;fillColor=#dae8fc;strokeColor=#6c8ebf;" vertex="1" parent="1">
          <mxGeometry x="280" y="170" width="50" height="50" as="geometry" />
        </mxCell>
        <mxCell id="i4n7vAegHaeL9RhwAYNJ-65" value="" style="shape=cube;whiteSpace=wrap;html=1;boundedLbl=1;backgroundOutline=1;darkOpacity=0.05;darkOpacity2=0.1;size=10;rotation=90;fillColor=#dae8fc;strokeColor=#6c8ebf;" vertex="1" parent="1">
          <mxGeometry x="320" y="170" width="50" height="50" as="geometry" />
        </mxCell>
        <mxCell id="i4n7vAegHaeL9RhwAYNJ-66" value="" style="shape=cube;whiteSpace=wrap;html=1;boundedLbl=1;backgroundOutline=1;darkOpacity=0.05;darkOpacity2=0.1;size=10;rotation=90;fillColor=#dae8fc;strokeColor=#6c8ebf;" vertex="1" parent="1">
          <mxGeometry x="360" y="170" width="50" height="50" as="geometry" />
        </mxCell>
        <mxCell id="i4n7vAegHaeL9RhwAYNJ-67" value="" style="shape=cube;whiteSpace=wrap;html=1;boundedLbl=1;backgroundOutline=1;darkOpacity=0.05;darkOpacity2=0.1;size=10;rotation=90;fillColor=#dae8fc;strokeColor=#6c8ebf;" vertex="1" parent="1">
          <mxGeometry x="200" y="130" width="50" height="50" as="geometry" />
        </mxCell>
        <mxCell id="i4n7vAegHaeL9RhwAYNJ-68" value="" style="shape=cube;whiteSpace=wrap;html=1;boundedLbl=1;backgroundOutline=1;darkOpacity=0.05;darkOpacity2=0.1;size=10;rotation=90;fillColor=#dae8fc;strokeColor=#6c8ebf;" vertex="1" parent="1">
          <mxGeometry x="240" y="130" width="50" height="50" as="geometry" />
        </mxCell>
        <mxCell id="i4n7vAegHaeL9RhwAYNJ-69" value="" style="shape=cube;whiteSpace=wrap;html=1;boundedLbl=1;backgroundOutline=1;darkOpacity=0.05;darkOpacity2=0.1;size=10;rotation=90;fillColor=#dae8fc;strokeColor=#6c8ebf;" vertex="1" parent="1">
          <mxGeometry x="280" y="130" width="50" height="50" as="geometry" />
        </mxCell>
        <mxCell id="i4n7vAegHaeL9RhwAYNJ-70" value="" style="shape=cube;whiteSpace=wrap;html=1;boundedLbl=1;backgroundOutline=1;darkOpacity=0.05;darkOpacity2=0.1;size=10;rotation=90;fillColor=#dae8fc;strokeColor=#6c8ebf;" vertex="1" parent="1">
          <mxGeometry x="320" y="130" width="50" height="50" as="geometry" />
        </mxCell>
        <mxCell id="i4n7vAegHaeL9RhwAYNJ-71" value="" style="shape=cube;whiteSpace=wrap;html=1;boundedLbl=1;backgroundOutline=1;darkOpacity=0.05;darkOpacity2=0.1;size=10;rotation=90;fillColor=#dae8fc;strokeColor=#6c8ebf;" vertex="1" parent="1">
          <mxGeometry x="360" y="130" width="50" height="50" as="geometry" />
        </mxCell>
        <mxCell id="i4n7vAegHaeL9RhwAYNJ-72" value="" style="shape=cube;whiteSpace=wrap;html=1;boundedLbl=1;backgroundOutline=1;darkOpacity=0.05;darkOpacity2=0.1;size=10;rotation=90;fillColor=#dae8fc;strokeColor=#6c8ebf;" vertex="1" parent="1">
          <mxGeometry x="200" y="90" width="50" height="50" as="geometry" />
        </mxCell>
        <mxCell id="i4n7vAegHaeL9RhwAYNJ-73" value="" style="shape=cube;whiteSpace=wrap;html=1;boundedLbl=1;backgroundOutline=1;darkOpacity=0.05;darkOpacity2=0.1;size=10;rotation=90;fillColor=#dae8fc;strokeColor=#6c8ebf;" vertex="1" parent="1">
          <mxGeometry x="240" y="90" width="50" height="50" as="geometry" />
        </mxCell>
        <mxCell id="i4n7vAegHaeL9RhwAYNJ-74" value="" style="shape=cube;whiteSpace=wrap;html=1;boundedLbl=1;backgroundOutline=1;darkOpacity=0.05;darkOpacity2=0.1;size=10;rotation=90;fillColor=#dae8fc;strokeColor=#6c8ebf;" vertex="1" parent="1">
          <mxGeometry x="280" y="90" width="50" height="50" as="geometry" />
        </mxCell>
        <mxCell id="i4n7vAegHaeL9RhwAYNJ-75" value="" style="shape=cube;whiteSpace=wrap;html=1;boundedLbl=1;backgroundOutline=1;darkOpacity=0.05;darkOpacity2=0.1;size=10;rotation=90;fillColor=#dae8fc;strokeColor=#6c8ebf;" vertex="1" parent="1">
          <mxGeometry x="320" y="90" width="50" height="50" as="geometry" />
        </mxCell>
        <mxCell id="i4n7vAegHaeL9RhwAYNJ-76" value="" style="shape=cube;whiteSpace=wrap;html=1;boundedLbl=1;backgroundOutline=1;darkOpacity=0.05;darkOpacity2=0.1;size=10;rotation=90;fillColor=#dae8fc;strokeColor=#6c8ebf;" vertex="1" parent="1">
          <mxGeometry x="360" y="90" width="50" height="50" as="geometry" />
        </mxCell>
        <mxCell id="i4n7vAegHaeL9RhwAYNJ-104" value="" style="shape=cube;whiteSpace=wrap;html=1;boundedLbl=1;backgroundOutline=1;darkOpacity=0.05;darkOpacity2=0.1;size=10;rotation=90;fillColor=#e1d5e7;strokeColor=#9673a6;" vertex="1" parent="1">
          <mxGeometry x="520" y="165" width="50" height="50" as="geometry" />
        </mxCell>
        <mxCell id="i4n7vAegHaeL9RhwAYNJ-105" value="" style="shape=cube;whiteSpace=wrap;html=1;boundedLbl=1;backgroundOutline=1;darkOpacity=0.05;darkOpacity2=0.1;size=10;rotation=90;fillColor=#e1d5e7;strokeColor=#9673a6;" vertex="1" parent="1">
          <mxGeometry x="560" y="165" width="50" height="50" as="geometry" />
        </mxCell>
        <mxCell id="i4n7vAegHaeL9RhwAYNJ-106" value="" style="shape=cube;whiteSpace=wrap;html=1;boundedLbl=1;backgroundOutline=1;darkOpacity=0.05;darkOpacity2=0.1;size=10;rotation=90;fillColor=#e1d5e7;strokeColor=#9673a6;" vertex="1" parent="1">
          <mxGeometry x="600" y="165" width="50" height="50" as="geometry" />
        </mxCell>
        <mxCell id="i4n7vAegHaeL9RhwAYNJ-107" value="" style="shape=cube;whiteSpace=wrap;html=1;boundedLbl=1;backgroundOutline=1;darkOpacity=0.05;darkOpacity2=0.1;size=10;rotation=90;fillColor=#e1d5e7;strokeColor=#9673a6;" vertex="1" parent="1">
          <mxGeometry x="520" y="125" width="50" height="50" as="geometry" />
        </mxCell>
        <mxCell id="i4n7vAegHaeL9RhwAYNJ-108" value="" style="shape=cube;whiteSpace=wrap;html=1;boundedLbl=1;backgroundOutline=1;darkOpacity=0.05;darkOpacity2=0.1;size=10;rotation=90;fillColor=#e1d5e7;strokeColor=#9673a6;" vertex="1" parent="1">
          <mxGeometry x="560" y="125" width="50" height="50" as="geometry" />
        </mxCell>
        <mxCell id="i4n7vAegHaeL9RhwAYNJ-109" value="" style="shape=cube;whiteSpace=wrap;html=1;boundedLbl=1;backgroundOutline=1;darkOpacity=0.05;darkOpacity2=0.1;size=10;rotation=90;fillColor=#e1d5e7;strokeColor=#9673a6;" vertex="1" parent="1">
          <mxGeometry x="600" y="125" width="50" height="50" as="geometry" />
        </mxCell>
        <mxCell id="i4n7vAegHaeL9RhwAYNJ-110" value="" style="shape=cube;whiteSpace=wrap;html=1;boundedLbl=1;backgroundOutline=1;darkOpacity=0.05;darkOpacity2=0.1;size=10;rotation=90;fillColor=#e1d5e7;strokeColor=#9673a6;" vertex="1" parent="1">
          <mxGeometry x="520" y="85" width="50" height="50" as="geometry" />
        </mxCell>
        <mxCell id="i4n7vAegHaeL9RhwAYNJ-111" value="" style="shape=cube;whiteSpace=wrap;html=1;boundedLbl=1;backgroundOutline=1;darkOpacity=0.05;darkOpacity2=0.1;size=10;rotation=90;fillColor=#e1d5e7;strokeColor=#9673a6;" vertex="1" parent="1">
          <mxGeometry x="560" y="85" width="50" height="50" as="geometry" />
        </mxCell>
        <mxCell id="i4n7vAegHaeL9RhwAYNJ-112" value="" style="shape=cube;whiteSpace=wrap;html=1;boundedLbl=1;backgroundOutline=1;darkOpacity=0.05;darkOpacity2=0.1;size=10;rotation=90;fillColor=#e1d5e7;strokeColor=#9673a6;" vertex="1" parent="1">
          <mxGeometry x="600" y="85" width="50" height="50" as="geometry" />
        </mxCell>
        <mxCell id="i4n7vAegHaeL9RhwAYNJ-113" value="" style="shape=cube;whiteSpace=wrap;html=1;boundedLbl=1;backgroundOutline=1;darkOpacity=0.05;darkOpacity2=0.1;size=10;rotation=90;fillColor=#e1d5e7;strokeColor=#9673a6;" vertex="1" parent="1">
          <mxGeometry x="510" y="175" width="50" height="50" as="geometry" />
        </mxCell>
        <mxCell id="i4n7vAegHaeL9RhwAYNJ-114" value="" style="shape=cube;whiteSpace=wrap;html=1;boundedLbl=1;backgroundOutline=1;darkOpacity=0.05;darkOpacity2=0.1;size=10;rotation=90;fillColor=#e1d5e7;strokeColor=#9673a6;" vertex="1" parent="1">
          <mxGeometry x="550" y="175" width="50" height="50" as="geometry" />
        </mxCell>
        <mxCell id="i4n7vAegHaeL9RhwAYNJ-115" value="" style="shape=cube;whiteSpace=wrap;html=1;boundedLbl=1;backgroundOutline=1;darkOpacity=0.05;darkOpacity2=0.1;size=10;rotation=90;fillColor=#e1d5e7;strokeColor=#9673a6;" vertex="1" parent="1">
          <mxGeometry x="590" y="175" width="50" height="50" as="geometry" />
        </mxCell>
        <mxCell id="i4n7vAegHaeL9RhwAYNJ-116" value="" style="shape=cube;whiteSpace=wrap;html=1;boundedLbl=1;backgroundOutline=1;darkOpacity=0.05;darkOpacity2=0.1;size=10;rotation=90;fillColor=#e1d5e7;strokeColor=#9673a6;" vertex="1" parent="1">
          <mxGeometry x="510" y="135" width="50" height="50" as="geometry" />
        </mxCell>
        <mxCell id="i4n7vAegHaeL9RhwAYNJ-117" value="" style="shape=cube;whiteSpace=wrap;html=1;boundedLbl=1;backgroundOutline=1;darkOpacity=0.05;darkOpacity2=0.1;size=10;rotation=90;fillColor=#e1d5e7;strokeColor=#9673a6;" vertex="1" parent="1">
          <mxGeometry x="550" y="135" width="50" height="50" as="geometry" />
        </mxCell>
        <mxCell id="i4n7vAegHaeL9RhwAYNJ-118" value="" style="shape=cube;whiteSpace=wrap;html=1;boundedLbl=1;backgroundOutline=1;darkOpacity=0.05;darkOpacity2=0.1;size=10;rotation=90;fillColor=#e1d5e7;strokeColor=#9673a6;" vertex="1" parent="1">
          <mxGeometry x="590" y="135" width="50" height="50" as="geometry" />
        </mxCell>
        <mxCell id="i4n7vAegHaeL9RhwAYNJ-119" value="" style="shape=cube;whiteSpace=wrap;html=1;boundedLbl=1;backgroundOutline=1;darkOpacity=0.05;darkOpacity2=0.1;size=10;rotation=90;fillColor=#e1d5e7;strokeColor=#9673a6;" vertex="1" parent="1">
          <mxGeometry x="510" y="95" width="50" height="50" as="geometry" />
        </mxCell>
        <mxCell id="i4n7vAegHaeL9RhwAYNJ-120" value="" style="shape=cube;whiteSpace=wrap;html=1;boundedLbl=1;backgroundOutline=1;darkOpacity=0.05;darkOpacity2=0.1;size=10;rotation=90;fillColor=#e1d5e7;strokeColor=#9673a6;" vertex="1" parent="1">
          <mxGeometry x="550" y="95" width="50" height="50" as="geometry" />
        </mxCell>
        <mxCell id="i4n7vAegHaeL9RhwAYNJ-121" value="" style="shape=cube;whiteSpace=wrap;html=1;boundedLbl=1;backgroundOutline=1;darkOpacity=0.05;darkOpacity2=0.1;size=10;rotation=90;fillColor=#e1d5e7;strokeColor=#9673a6;" vertex="1" parent="1">
          <mxGeometry x="590" y="95" width="50" height="50" as="geometry" />
        </mxCell>
        <mxCell id="i4n7vAegHaeL9RhwAYNJ-122" value="" style="shape=cube;whiteSpace=wrap;html=1;boundedLbl=1;backgroundOutline=1;darkOpacity=0.05;darkOpacity2=0.1;size=10;rotation=90;fillColor=#e1d5e7;strokeColor=#9673a6;" vertex="1" parent="1">
          <mxGeometry x="500" y="185" width="50" height="50" as="geometry" />
        </mxCell>
        <mxCell id="i4n7vAegHaeL9RhwAYNJ-123" value="" style="shape=cube;whiteSpace=wrap;html=1;boundedLbl=1;backgroundOutline=1;darkOpacity=0.05;darkOpacity2=0.1;size=10;rotation=90;fillColor=#e1d5e7;strokeColor=#9673a6;" vertex="1" parent="1">
          <mxGeometry x="540" y="185" width="50" height="50" as="geometry" />
        </mxCell>
        <mxCell id="i4n7vAegHaeL9RhwAYNJ-124" value="" style="shape=cube;whiteSpace=wrap;html=1;boundedLbl=1;backgroundOutline=1;darkOpacity=0.05;darkOpacity2=0.1;size=10;rotation=90;fillColor=#e1d5e7;strokeColor=#9673a6;" vertex="1" parent="1">
          <mxGeometry x="580" y="185" width="50" height="50" as="geometry" />
        </mxCell>
        <mxCell id="i4n7vAegHaeL9RhwAYNJ-125" value="" style="shape=cube;whiteSpace=wrap;html=1;boundedLbl=1;backgroundOutline=1;darkOpacity=0.05;darkOpacity2=0.1;size=10;rotation=90;fillColor=#e1d5e7;strokeColor=#9673a6;" vertex="1" parent="1">
          <mxGeometry x="500" y="145" width="50" height="50" as="geometry" />
        </mxCell>
        <mxCell id="i4n7vAegHaeL9RhwAYNJ-126" value="" style="shape=cube;whiteSpace=wrap;html=1;boundedLbl=1;backgroundOutline=1;darkOpacity=0.05;darkOpacity2=0.1;size=10;rotation=90;fillColor=#e1d5e7;strokeColor=#9673a6;" vertex="1" parent="1">
          <mxGeometry x="540" y="145" width="50" height="50" as="geometry" />
        </mxCell>
        <mxCell id="i4n7vAegHaeL9RhwAYNJ-127" value="" style="shape=cube;whiteSpace=wrap;html=1;boundedLbl=1;backgroundOutline=1;darkOpacity=0.05;darkOpacity2=0.1;size=10;rotation=90;fillColor=#e1d5e7;strokeColor=#9673a6;" vertex="1" parent="1">
          <mxGeometry x="580" y="145" width="50" height="50" as="geometry" />
        </mxCell>
        <mxCell id="i4n7vAegHaeL9RhwAYNJ-128" value="" style="shape=cube;whiteSpace=wrap;html=1;boundedLbl=1;backgroundOutline=1;darkOpacity=0.05;darkOpacity2=0.1;size=10;rotation=90;fillColor=#e1d5e7;strokeColor=#9673a6;" vertex="1" parent="1">
          <mxGeometry x="500" y="105" width="50" height="50" as="geometry" />
        </mxCell>
        <mxCell id="i4n7vAegHaeL9RhwAYNJ-129" value="" style="shape=cube;whiteSpace=wrap;html=1;boundedLbl=1;backgroundOutline=1;darkOpacity=0.05;darkOpacity2=0.1;size=10;rotation=90;fillColor=#e1d5e7;strokeColor=#9673a6;" vertex="1" parent="1">
          <mxGeometry x="540" y="105" width="50" height="50" as="geometry" />
        </mxCell>
        <mxCell id="i4n7vAegHaeL9RhwAYNJ-130" value="" style="shape=cube;whiteSpace=wrap;html=1;boundedLbl=1;backgroundOutline=1;darkOpacity=0.05;darkOpacity2=0.1;size=10;rotation=90;fillColor=#e1d5e7;strokeColor=#9673a6;" vertex="1" parent="1">
          <mxGeometry x="580" y="105" width="50" height="50" as="geometry" />
        </mxCell>
        <mxCell id="i4n7vAegHaeL9RhwAYNJ-131" value="" style="shape=sumEllipse;perimeter=ellipsePerimeter;whiteSpace=wrap;html=1;backgroundOutline=1;fillColor=#fff2cc;strokeColor=#d6b656;" vertex="1" parent="1">
          <mxGeometry x="450" y="160" width="30" height="30" as="geometry" />
        </mxCell>
        <mxCell id="i4n7vAegHaeL9RhwAYNJ-132" value="" style="verticalLabelPosition=bottom;shadow=0;dashed=0;align=center;html=1;verticalAlign=top;shape=mxgraph.electrical.abstract.sum;fillColor=#fff2cc;strokeColor=#d6b656;" vertex="1" parent="1">
          <mxGeometry x="680" y="165" width="30" height="25" as="geometry" />
        </mxCell>
        <mxCell id="i4n7vAegHaeL9RhwAYNJ-133" value="" style="rounded=0;whiteSpace=wrap;html=1;fillColor=#d5e8d4;strokeColor=#82b366;" vertex="1" parent="1">
          <mxGeometry x="740" y="100" width="40" height="40" as="geometry" />
        </mxCell>
        <mxCell id="i4n7vAegHaeL9RhwAYNJ-134" value="" style="rounded=0;whiteSpace=wrap;html=1;fillColor=#d5e8d4;strokeColor=#82b366;" vertex="1" parent="1">
          <mxGeometry x="780" y="100" width="40" height="40" as="geometry" />
        </mxCell>
        <mxCell id="i4n7vAegHaeL9RhwAYNJ-135" value="" style="rounded=0;whiteSpace=wrap;html=1;fillColor=#d5e8d4;strokeColor=#82b366;" vertex="1" parent="1">
          <mxGeometry x="820" y="100" width="40" height="40" as="geometry" />
        </mxCell>
        <mxCell id="i4n7vAegHaeL9RhwAYNJ-136" value="" style="rounded=0;whiteSpace=wrap;html=1;fillColor=#d5e8d4;strokeColor=#82b366;" vertex="1" parent="1">
          <mxGeometry x="740" y="140" width="40" height="40" as="geometry" />
        </mxCell>
        <mxCell id="i4n7vAegHaeL9RhwAYNJ-137" value="" style="rounded=0;whiteSpace=wrap;html=1;fillColor=#d5e8d4;strokeColor=#82b366;" vertex="1" parent="1">
          <mxGeometry x="780" y="140" width="40" height="40" as="geometry" />
        </mxCell>
        <mxCell id="i4n7vAegHaeL9RhwAYNJ-138" value="" style="rounded=0;whiteSpace=wrap;html=1;fillColor=#d5e8d4;strokeColor=#82b366;" vertex="1" parent="1">
          <mxGeometry x="820" y="140" width="40" height="40" as="geometry" />
        </mxCell>
        <mxCell id="i4n7vAegHaeL9RhwAYNJ-139" value="" style="rounded=0;whiteSpace=wrap;html=1;fillColor=#d5e8d4;strokeColor=#82b366;" vertex="1" parent="1">
          <mxGeometry x="740" y="180" width="40" height="40" as="geometry" />
        </mxCell>
        <mxCell id="i4n7vAegHaeL9RhwAYNJ-140" value="" style="rounded=0;whiteSpace=wrap;html=1;fillColor=#d5e8d4;strokeColor=#82b366;" vertex="1" parent="1">
          <mxGeometry x="780" y="180" width="40" height="40" as="geometry" />
        </mxCell>
        <mxCell id="i4n7vAegHaeL9RhwAYNJ-141" value="" style="rounded=0;whiteSpace=wrap;html=1;fillColor=#d5e8d4;strokeColor=#82b366;" vertex="1" parent="1">
          <mxGeometry x="820" y="180" width="40" height="40" as="geometry" />
        </mxCell>
      </root>
    </mxGraphModel>
  </diagram>
</mxfile>
